<svg id="Capa_1" data-name="Capa 1" xmlns="http://www.w3.org/2000/svg" viewBox="0 0 346.7 500.79"><defs><style>.cls-1{fill:#690b56;}.cls-2{fill:#b72357;}.cls-3{fill:#92c64e;}.cls-4{fill:#ffc617;}</style></defs><path class="cls-1" d="M253.49,40.42V12.83a8,8,0,0,0-8-8H13.52a8,8,0,0,0-8,8V386.16a8,8,0,0,0,8,8H42.34a8,8,0,0,0,8-8v-264a8,8,0,0,1,8-8H117.2a8,8,0,0,0,8-8V78.5a8,8,0,0,0-8-8H58.37a8,8,0,0,1-8-8v-6a8,8,0,0,1,8-8h187.1A8,8,0,0,0,253.49,40.42Z"/><path class="cls-2" d="M151.28,235.38l2.35-11a46.7,46.7,0,0,0,11.26-14.84c3.89-7.88,5.85-17.09,5.85-27.38s-2-19.57-5.8-27.41A45.1,45.1,0,0,0,148.42,136a44.45,44.45,0,0,0-24.14-6.59H71c-4.19,0-7.6,3.87-7.6,8.66V305.59c0,4.78,3.41,8.65,7.6,8.65H89.28c4.2,0,7.6-3.87,7.6-8.65v-62.1c0-4.78,3.4-8.66,7.6-8.66h4.22a7.55,7.55,0,0,1,6.78,4.76l31,69.88a7.56,7.56,0,0,0,6.82,4.75l21.48-.09c5.69,0,9.34-6.9,6.71-12.65Zm-15.21-53.26c0,5.18-1,9.09-3.23,11.93a9,9,0,0,1-7.82,3.73H104.48c-4.2,0-7.6-3.88-7.6-8.66v-14c0-4.78,3.4-8.65,7.6-8.65H125a9,9,0,0,1,7.82,3.72C135,173.05,136.07,176.94,136.07,182.12Z"/><path class="cls-1" d="M282.77,4.82a8,8,0,0,0-8,8V209.42c0,10.42-2.26,18.36-6.74,23.6-4.36,5.09-10.65,7.57-19.23,7.57s-14.73-2.47-19.05-7.54c-4.45-5.25-6.71-13.2-6.71-23.63V93.55a8,8,0,0,0-8-8H190.33a8,8,0,0,0-8,8v115c0,23.45,5.88,42.09,17.49,55.39,11.75,13.48,28.22,20.31,49,20.31s37.34-6.83,49.11-20.29c11.65-13.3,17.57-32,17.57-55.41V12.83a8,8,0,0,0-8-8Z"/><path class="cls-3" d="M165,415.36A62.45,62.45,0,0,0,151,402.91c-4.94-3.21-10-6.24-15-9q-8-4.38-14.72-8.64a23.16,23.16,0,0,1-7.73-7.39c-.38-.65-1.55-2.61-.08-7.33s4-7.38,8.14-8.76c5-1.65,11.53-1.2,19.58,1.32A41.47,41.47,0,0,1,154,369.87a58.67,58.67,0,0,1,11.76,12.42h0a8,8,0,0,0,11.32,1.7l16.35-12.31A8,8,0,0,0,195,360.5h0a90.92,90.92,0,0,0-19.59-19.63A81.86,81.86,0,0,0,151.84,329c-17.81-5.59-33.35-5.77-46.17-.55-13.36,5.44-22.62,16.1-27.54,31.79-3,9.73-3.79,18-2.27,25.23a39,39,0,0,0,9.38,18.66,64.86,64.86,0,0,0,15.09,12.05c5.2,3,10.39,5.86,15.62,8.54a119.72,119.72,0,0,1,13.36,7.76,19.93,19.93,0,0,1,6.7,7.05c.94,1.8.9,4.38-.17,7.77a11.39,11.39,0,0,1-8.25,8.22c-5.29,1.59-12.39,1-21.1-1.72a57.59,57.59,0,0,1-17.71-8.93,51.12,51.12,0,0,1-12.64-14h0a8,8,0,0,0-11.24-2.48L47.67,439.77a8,8,0,0,0-2.36,11h0a84.12,84.12,0,0,0,13.11,16,85,85,0,0,0,16.88,12.43,107,107,0,0,0,20.48,8.76C114.06,493.65,130,494,143,489.1c13.76-5.22,23.2-15.74,28.13-31.47,2.83-9,3.59-17.08,2.29-24A39.73,39.73,0,0,0,165,415.36Z"/><path class="cls-4" d="M289.58,304.34a8,8,0,0,0-5.93,9.43l15.87,75.51c2,9.34,1.42,17-1.6,22.66s-8.13,9.15-15.83,11-13.67,1-18.5-2.56c-5-3.72-8.51-10.35-10.48-19.71l-15.76-75a8,8,0,0,0-9.77-6.13l-20.94,5.15a8,8,0,0,0-5.92,9.44l15.71,74.74c4.42,21.05,13.22,36.47,26.14,45.84,13.08,9.49,29.14,12,47.76,7.4s32.21-14.37,40.24-29c7.94-14.51,9.73-32.55,5.3-53.6l-15.6-74.21a8,8,0,0,0-9.76-6.14Z"/></svg>